<svg width="23" height="23" viewBox="0 0 23 23" fill="none" xmlns="http://www.w3.org/2000/svg">
	<path fill-rule="evenodd" clip-rule="evenodd" d="M11.5 0C12.1049 0 12.5952 0.490355 12.5952 1.09524V2.98701C12.5952 3.5919 12.1049 4.08225 11.5 4.08225C10.8951 4.08225 10.4048 3.5919 10.4048 2.98701V1.09524C10.4048 0.490355 10.8951 0 11.5 0ZM3.36656 3.36654C3.79428 2.93883 4.48775 2.93883 4.91546 3.36654L6.25862 4.7097C6.68634 5.13742 6.68634 5.83089 6.25862 6.2586C5.8309 6.68632 5.13744 6.68632 4.70972 6.2586L3.36656 4.91544C2.93884 4.48773 2.93885 3.79426 3.36656 3.36654ZM19.6334 3.36654C20.0612 3.79426 20.0612 4.48773 19.6334 4.91544L18.2903 6.2586C17.8626 6.68632 17.1691 6.68632 16.7414 6.2586C16.3137 5.83089 16.3137 5.13742 16.7414 4.7097L18.0845 3.36654C18.5123 2.93883 19.2057 2.93883 19.6334 3.36654ZM11.5 7.8658C9.49288 7.8658 7.8658 9.49288 7.8658 11.5C7.8658 13.5071 9.49288 15.1342 11.5 15.1342C13.5071 15.1342 15.1342 13.5071 15.1342 11.5C15.1342 9.49288 13.5071 7.8658 11.5 7.8658ZM5.67532 11.5C5.67532 8.28312 8.28311 5.67532 11.5 5.67532C14.7169 5.67532 17.3247 8.28312 17.3247 11.5C17.3247 14.7169 14.7169 17.3247 11.5 17.3247C8.28311 17.3247 5.67532 14.7169 5.67532 11.5ZM0 11.5C0 10.8951 0.490355 10.4048 1.09524 10.4048H2.98701C3.59189 10.4048 4.08225 10.8951 4.08225 11.5C4.08225 12.1049 3.59189 12.5952 2.98701 12.5952H1.09524C0.490355 12.5952 0 12.1049 0 11.5ZM18.9178 11.5C18.9178 10.8951 19.4081 10.4048 20.013 10.4048H21.9048C22.5096 10.4048 23 10.8951 23 11.5C23 12.1049 22.5096 12.5952 21.9048 12.5952H20.013C19.4081 12.5952 18.9178 12.1049 18.9178 11.5ZM6.25862 16.7414C6.68634 17.1691 6.68634 17.8626 6.25862 18.2903L4.91546 19.6335C4.48775 20.0612 3.79428 20.0612 3.36656 19.6335C2.93885 19.2057 2.93884 18.5123 3.36656 18.0846L4.70972 16.7414C5.13744 16.3137 5.8309 16.3137 6.25862 16.7414ZM16.7414 16.7414C17.1691 16.3137 17.8626 16.3137 18.2903 16.7414L19.6334 18.0846C20.0612 18.5123 20.0612 19.2057 19.6334 19.6335C19.2057 20.0612 18.5123 20.0612 18.0845 19.6335L16.7414 18.2903C16.3137 17.8626 16.3137 17.1691 16.7414 16.7414ZM11.5 18.9178C12.1049 18.9178 12.5952 19.4081 12.5952 20.013V21.9048C12.5952 22.5096 12.1049 23 11.5 23C10.8951 23 10.4048 22.5096 10.4048 21.9048V20.013C10.4048 19.4081 10.8951 18.9178 11.5 18.9178Z" fill="#ED3C20"/>
</svg>
