<svg width="23" height="23" viewBox="0 0 23 23" fill="none" xmlns="http://www.w3.org/2000/svg">
	<path d="M19.0216 17.0615C18.5076 17.1436 17.9839 17.1847 17.4508 17.1847C15.7182 17.1847 14.114 16.7743 12.6384 15.9535C11.1628 15.1327 9.99654 14.0155 9.13973 12.6019C8.28291 11.1883 7.85451 9.65156 7.85451 7.99173C7.85451 6.24069 8.34956 4.61278 9.33965 3.10799C7.4261 3.65518 5.86242 4.69942 4.6486 6.24069C3.43478 7.78197 2.82787 9.533 2.82787 11.4938C2.82787 12.6794 3.07063 13.8125 3.55616 14.8933C4.04169 15.974 4.69144 16.9042 5.50541 17.684C6.31938 18.4637 7.29044 19.0862 8.41858 19.5513C9.54671 20.0164 10.7296 20.249 11.9672 20.249C13.3381 20.249 14.64 19.9685 15.8729 19.4076C17.1057 18.8468 18.1553 18.0647 19.0216 17.0615ZM21.9205 15.8987C21.0256 17.7501 19.6762 19.2298 17.8721 20.3379C16.068 21.446 14.0997 22 11.9672 22C10.4821 22 9.06357 21.7218 7.71171 21.1655C6.35984 20.6092 5.19363 19.8614 4.21305 18.922C3.23248 17.9827 2.45182 16.8655 1.87109 15.5704C1.29036 14.2754 1 12.9165 1 11.4938C1 10.0984 1.2737 8.76465 1.82111 7.49241C2.36852 6.22017 3.11109 5.11894 4.04883 4.1887C4.98656 3.25846 6.10756 2.50835 7.41182 1.93835C8.71608 1.36835 10.0965 1.05599 11.5531 1.00127C11.972 0.983033 12.2623 1.16087 12.4242 1.53479C12.5955 1.90871 12.5241 2.23703 12.21 2.51975C11.3912 3.2311 10.7653 4.05874 10.3321 5.00266C9.89896 5.94658 9.68238 6.94293 9.68238 7.99173C9.68238 9.34148 10.0299 10.5864 10.7248 11.7264C11.4198 12.8664 12.3623 13.7692 13.5523 14.435C14.7423 15.1007 16.0418 15.4336 17.4508 15.4336C18.5742 15.4336 19.6595 15.2011 20.7067 14.7359C21.097 14.5718 21.4398 14.6311 21.7349 14.9138C21.8682 15.0415 21.9515 15.1965 21.9848 15.3789C22.0181 15.5613 21.9967 15.7346 21.9205 15.8987Z" fill="#272624"/>
</svg>
