<svg width="28" height="30" viewBox="0 0 30 30" xmlns="http://www.w3.org/2000/svg">
	<path d="M24.0289 21.4154C23.3434 21.5248 22.6453 21.5795 21.9344 21.5795C19.6242 21.5795 17.4853 21.0323 15.5178 19.9379C13.5503 18.8436 11.9954 17.354 10.853 15.4692C9.71055 13.5844 9.13934 11.5354 9.13934 9.3223C9.13934 6.98759 9.79941 4.81704 11.1195 2.81065C8.56813 3.54024 6.48322 4.93256 4.8648 6.98759C3.24637 9.04263 2.43716 11.3773 2.43716 13.9917C2.43716 15.5725 2.76084 17.0834 3.40821 18.5244C4.05558 19.9653 4.92192 21.2056 6.00721 22.2453C7.09251 23.285 8.38725 24.1149 9.89143 24.7351C11.3956 25.3552 12.9728 25.6653 14.6229 25.6653C16.4508 25.6653 18.1867 25.2914 19.8305 24.5435C21.4743 23.7957 22.8737 22.753 24.0289 21.4154ZM27.894 19.865C26.7008 22.3335 24.9015 24.3064 22.4961 25.7838C20.0907 27.2613 17.4663 28 14.6229 28C12.6428 28 10.7514 27.6291 8.94894 26.8874C7.14646 26.1456 5.5915 25.1485 4.28407 23.896C2.97663 22.6435 1.93576 21.1539 1.16146 19.4272C0.387153 17.7005 0 15.8887 0 13.9917C0 12.1313 0.364939 10.3529 1.09482 8.65655C1.8247 6.96023 2.81479 5.49192 4.0651 4.2516C5.31542 3.01129 6.81008 2.01113 8.54909 1.25113C10.2881 0.491135 12.1287 0.0746565 14.0708 0.00169674C14.6293 -0.0226232 15.0164 0.214496 15.2322 0.713054C15.4607 1.21161 15.3655 1.64937 14.9466 2.02633C13.855 2.97481 13.0204 4.07832 12.4428 5.33688C11.8653 6.59543 11.5765 7.92391 11.5765 9.3223C11.5765 11.122 12.0398 12.7818 12.9664 14.3018C13.8931 15.8218 15.1497 17.0256 16.7364 17.9133C18.3231 18.801 20.0558 19.2448 21.9344 19.2448C23.4323 19.2448 24.8793 18.9348 26.2756 18.3146C26.796 18.0957 27.253 18.1748 27.6465 18.5517C27.8242 18.722 27.9353 18.9287 27.9797 19.1719C28.0241 19.4151 27.9956 19.6461 27.894 19.865Z" fill="#272624"/>
</svg>
