<svg width="74" height="82" viewBox="0 0 512 512" aria-hidden="true" xmlns="http://www.w3.org/2000/svg" fill="#272624">
	<path d="M506.759 242.35L388.359 116.91C381.082 109.192 368.935 108.84 361.217 116.123C353.511 123.4 353.153 135.553 360.436 143.265L466.401 255.521L360.436 367.79C353.153 375.502 353.511 387.649 361.217 394.932C364.929 398.433 369.671 400.167 374.395 400.167C379.496 400.167 384.59 398.145 388.36 394.157L506.76 268.711C513.741 261.307 513.741 249.748 506.759 242.35Z"/>
	<path d="M151.565 367.784L45.6075 255.521L151.565 143.259C158.842 135.547 158.491 123.393 150.779 116.117C143.073 108.84 130.912 109.192 123.636 116.904L5.2365 242.344C-1.7455 249.742 -1.7455 261.307 5.2365 268.706L123.642 394.152C127.418 398.152 132.506 400.168 137.607 400.168C142.33 400.168 147.074 398.427 150.779 394.926C158.498 387.649 158.842 375.496 151.565 367.784Z"/>
	<path d="M287.061 52.2194C276.584 50.6324 266.778 57.8254 265.178 68.3024L208.859 436.942C207.259 447.425 214.459 457.224 224.942 458.824C225.928 458.971 226.9 459.042 227.867 459.042C237.192 459.042 245.371 452.239 246.824 442.741L303.144 74.1014C304.744 63.6174 297.544 53.8194 287.061 52.2194Z"/>
</svg>
