<svg width="40" height="39" viewBox="0 0 80 78" role="img" aria-labelledby="gitHub" xmlns="http://www.w3.org/2000/svg">
	<title id="gitHub">Репозиторий на Гитхабе</title>
	<path class="github" d="M26.9131 62.5269C26.9131 62.8458 26.5465 63.1008 26.0843 63.1008C25.558 63.1484 25.1918 62.8937 25.1918 62.5269C25.1918 62.2083 25.5582 61.9529 26.0207 61.9529C26.4989 61.9053 26.9131 62.1602 26.9131 62.5269ZM21.9561 61.8094C21.8445 62.1285 22.1632 62.4948 22.6413 62.5904C23.0557 62.7499 23.534 62.5904 23.6296 62.2719C23.7255 61.9529 23.4225 61.5864 22.9443 61.4427C22.5298 61.3315 22.0676 61.4907 21.9561 61.8094ZM29.0014 61.5385C28.5392 61.6502 28.2204 61.9529 28.268 62.3195C28.3159 62.6381 28.7303 62.8459 29.2087 62.7342C29.671 62.6225 29.9897 62.3195 29.9419 62.0008C29.8939 61.6978 29.4637 61.4907 29.0014 61.5385ZM39.4899 0.456512C17.3809 0.456512 0.468933 17.2411 0.468933 39.3503C0.468933 57.0278 11.5947 72.1547 27.4872 77.4789C29.5275 77.8455 30.2447 76.5861 30.2447 75.5499C30.2447 74.5616 30.1971 69.1099 30.1971 65.763C30.1971 65.763 19.0388 68.1539 16.6957 61.0125C16.6957 61.0125 14.8786 56.374 12.2644 55.1784C12.2644 55.1784 8.61409 52.6759 12.5194 52.7239C12.5194 52.7239 16.4887 53.0429 18.6724 56.8365C22.1632 62.9894 28.0131 61.2202 30.2923 60.1679C30.6591 57.6175 31.6952 55.8482 32.843 54.7962C23.9324 53.8079 14.9424 52.5166 14.9424 37.1826C14.9424 32.7991 16.1537 30.5994 18.7044 27.7939C18.29 26.7579 16.9349 22.4861 19.1187 16.9706C22.4502 15.9345 30.117 21.2745 30.117 21.2745C33.3053 20.3818 36.7323 19.9196 40.1274 19.9196C43.5228 19.9196 46.9498 20.3818 50.1375 21.2745C50.1375 21.2745 57.8051 15.9187 61.1363 16.9706C63.32 22.5017 61.9651 26.7579 61.5509 27.7939C64.1015 30.6152 65.6632 32.8147 65.6632 37.1826C65.6632 52.5647 56.2745 53.7919 47.3643 54.7962C48.8308 56.0552 50.0739 58.4465 50.0739 62.1923C50.0739 67.5639 50.0263 74.2112 50.0263 75.5179C50.0263 76.554 50.7596 77.8133 52.7839 77.4469C68.7239 72.1549 79.5311 57.0278 79.5311 39.3505C79.5311 17.2411 61.5987 0.456512 39.4899 0.456512ZM15.9626 55.4337C15.7553 55.593 15.8031 55.9598 16.0738 56.2621C16.3289 56.5173 16.6955 56.6287 16.9028 56.4219C17.1099 56.2621 17.0621 55.8958 16.7912 55.593C16.5363 55.3379 16.1699 55.2264 15.9626 55.4337ZM14.2409 54.1425C14.1296 54.3496 14.2887 54.6045 14.6077 54.764C14.8626 54.9237 15.1816 54.8756 15.2932 54.6525C15.4045 54.4454 15.2454 54.1905 14.9265 54.0308C14.6077 53.9351 14.3523 53.983 14.2409 54.1425ZM19.4056 59.8168C19.1507 60.0241 19.2463 60.5024 19.6127 60.8051C19.9793 61.1719 20.4415 61.2198 20.6488 60.9644C20.8559 60.7575 20.7603 60.2792 20.4415 59.9765C20.0909 59.6099 19.6127 59.5619 19.4056 59.8168ZM17.5884 57.474C17.3333 57.6331 17.3333 58.0475 17.5884 58.4141C17.8434 58.7809 18.2738 58.9402 18.4809 58.7809C18.7358 58.5736 18.7358 58.1592 18.4809 57.7926C18.2578 57.4262 17.8436 57.2665 17.5884 57.474Z" fill="#272624"/>
</svg>
