<svg width="76" height="75" viewBox="0 0 89 88" role="img" aria-hidden="true" xmlns="http://www.w3.org/2000/svg">
	<path class="logo-icon" d="M87.9 53.4L80.5 48.4V33.4L87.9 28.5C88.3 28.2 88.6 27.8 88.6 27.3C88.6 26.8 88.3 26.3 87.9 26.1L49.8 0.499994C49.3 0.199994 48.6 0.199994 48.1 0.499994L1.1 31.9C0.9 32 0.8 32.1 0.7 32.3C0.7 32.3 0.7 32.3 0.7 32.4C0.5 32.7 0.5 32.9 0.5 33.2V60.7C0.5 61.2 0.8 61.7 1.2 61.9L39.3 87.3C39.6 87.5 39.8 87.6 40.1 87.6C40.4 87.6 40.7 87.5 40.9 87.3L88 55.9C88.4 55.6 88.7 55.2 88.7 54.7C88.6 54.1 88.3 53.6 87.9 53.4ZM49 3.59999L84.4 27.2L78.6 31C78.3 31.1 78 31.3 77.8 31.5L40 56.7L11.6 37.8C11.5 37.7 11.4 37.7 11.4 37.6L4.6 33.1L49 3.59999ZM12.1 41.8L39.1 59.8C39.6 60.1 40.3 60.1 40.8 59.8L77.5 35.3V47.6L40.2 72.2L12.1 54.2V41.8ZM40 84.2L3.4 59.8V36L9.2 39.8V55C9.2 55.5 9.5 56 9.9 56.3L39.5 75.3C39.7 75.5 40 75.5 40.3 75.5C40.6 75.5 40.9 75.4 41.1 75.3L78.5 50.7L84.4 54.7L40 84.2Z"/>
	<path d="M42.5 17.3L60.3 29.5C60.6 29.7 60.9 29.8 61.1 29.8C61.6 29.8 62 29.6 62.3 29.1C62.8 28.4 62.6 27.5 61.9 27L44.2 14.8C43.5 14.3 42.6 14.5 42.1 15.2C41.6 15.9 41.8 16.8 42.5 17.3Z" fill="#ed3c20"/>
</svg>
