<svg width="74" height="82" viewBox="0 0 512 512" aria-hidden="true" xmlns="http://www.w3.org/2000/svg">
	<path d="M512 76.1283C512 64.6148 507.517 53.7857 499.361 45.6227C491.337 37.6126 480.675 33.1309 469.336 33.003C469.17 33.001 469.005 33 468.84 33C457.683 33 447.114 37.2319 439.03 44.9522L181.706 290.821C180.705 290.742 179.701 290.675 178.691 290.633C156.602 289.711 134.052 296.678 115.169 310.254C100.97 320.463 92.868 333.077 85.033 345.275C81.506 350.766 78.175 355.951 74.313 360.899C59.72 379.596 35.376 388.282 15.799 393.76L0 398.181L5.806 413.515C22.008 456.303 78.016 476.954 123.199 478.033C124.586 478.066 125.98 478.083 127.387 478.083C171.279 478.083 224.592 461.747 247.268 415.495C255.38 398.951 257.913 380.109 255.018 361.983L500.043 105.916C507.753 97.8564 512 87.2761 512 76.1283ZM220.305 402.294C203.12 437.346 157.633 448.853 123.917 448.037C100.065 447.468 61.354 438.342 42.405 416.792C62.05 409.672 82.91 398.672 97.991 379.351C102.701 373.317 106.566 367.3 110.304 361.481C117.198 350.749 123.151 341.478 132.707 334.609C146.157 324.939 162.03 319.964 177.437 320.611C200.233 321.564 212.403 336.428 217.628 345.204C228.001 362.629 229.028 384.504 220.305 402.294ZM478.339 85.1837L243.723 330.372C243.624 330.203 243.532 330.032 243.431 329.864C236.064 317.489 226.145 307.69 214.533 300.968L459.777 66.6413C464.98 61.6719 473.047 61.7629 478.124 66.8352C480.606 69.3183 481.973 72.6199 481.973 76.1283C481.974 79.5178 480.682 82.7335 478.339 85.1837Z" fill="#272624"/>
</svg>
